:SAMPLES-PER-SECOND 30
:FULLY-SPECIFIED
:DEGREES
360
root  -33.0671 34.1253 3.16573 -173.382 79.9558 178.374
RightUpLeg  -12.4924 -7.61398 -1.79856
RightLeg  18.9404 6.4348 1.75012
RightFoot  -3.16505 -0.0228051 -0.319242
RightToes  -30.3911 -0.148668 -0.267284
Spine  -3.67963 0.0440131 -0.043513
Spine1  -5.84148 0.167058 0.381791
HEad  -62.3307 1.31568 5.57617
LeftShoulder1  -1.94126e-019 -3.10601e-018 -2.51263e-017
LeftArm  -26.3048 51.6607 -78.0811
LeftForeArm  32.9011 -3.02278 -0.520108
LeftHand  -0.361952 1.39028 10.4339
RightShoulder  -4.96962e-017 0 -2.36833e-017
RightArm  -51.3059 -47.3816 67.289
RightForeArm  61.3116 2.03565 0.323364
RightHand  0.118212 -6.86117 -11.2048
LeftUpLeg  -13.0735 2.33422 -1.53823
LeftLeg  17.5152 12.8102 3.12263
LeftFoot  -1.17261 -0.00309962 -0.141367
LeftToes  -17.1236 1.89912e-006 4.45198e-008
361
root  -33.0471 34.113 3.14611 -173.682 80.0917 178.181
RightUpLeg  -12.4755 -7.57759 -1.87786
RightLeg  19.1663 6.50325 1.79606
RightFoot  -3.24587 -0.0231681 -0.346916
RightToes  -30.6218 -0.149252 -0.266858
Spine  -3.92585 0.00868329 0.0113155
Spine1  -6.05591 0.0938401 0.471619
HEad  -61.6138 1.78766 5.298
LeftShoulder1  -1.94126e-019 -3.10601e-018 -2.51263e-017
LeftArm  -28.4935 54.5147 -77.9145
LeftForeArm  31.1386 -0.843223 -0.142259
LeftHand  -0.292111 2.69597 12.2932
RightShoulder  -4.96962e-017 0 -2.36833e-017
RightArm  -52.5103 -50.7094 65.073
RightForeArm  59.6364 1.16559 0.18113
RightHand  0.329275 -8.91121 -11.8118
LeftUpLeg  -12.9857 2.40409 -1.59964
LeftLeg  17.676 12.8628 3.17307
LeftFoot  -1.31062 -0.00387371 -0.177144
LeftToes  -16.9317 1.89912e-006 4.45198e-008
362
root  -33.0359 34.1182 3.12848 -173.86 80.3391 178.046
RightUpLeg  -12.4443 -7.36432 -1.9378
RightLeg  19.1603 6.52886 1.80238
RightFoot  -3.24003 -0.0234366 -0.355417
RightToes  -30.4459 -0.14983 -0.266404
Spine  -4.06319 0.0153478 0.0747214
Spine1  -6.17117 0.110802 0.578148
HEad  -61.3037 2.35958 4.97907
LeftShoulder1  -1.94126e-019 -3.10601e-018 -2.51263e-017
LeftArm  -31.2991 56.3959 -78.0127
LeftForeArm  28.6454 0.246923 0.0442441
LeftHand  -0.223452 3.56428 13.6305
RightShoulder  -4.96962e-017 0 -2.36833e-017
RightArm  -53.8475 -52.843 63.4136
RightForeArm  59.7942 0.964045 0.147628
RightHand  0.401691 -9.63452 -11.8308
LeftUpLeg  -12.864 2.53882 -1.65529
LeftLeg  17.6183 12.9675 3.18474
LeftFoot  -1.29455 -0.0047116 -0.177245
LeftToes  -16.9367 1.89912e-006 4.45198e-008
363
root  -33.0278 34.1266 3.11802 -173.86 80.5981 178.037
RightUpLeg  -12.4261 -7.23542 -1.96114
RightLeg  19.0512 6.65197 1.8227
RightFoot  -3.12555 -0.0230689 -0.354817
RightToes  -30.6054 -0.15039 -0.265922
Spine  -4.07777 0.0130707 0.120015
Spine1  -6.15134 0.0931516 0.658816
HEad  -61.4375 3.20837 4.38643
LeftShoulder1  -1.94126e-019 -3.10601e-018 -2.51263e-017
LeftArm  -32.8073 57.4955 -78.3446
LeftForeArm  25.2552 -0.327681 -0.0587267
LeftHand  -0.194237 3.8464 13.8689
RightShoulder  -4.96962e-017 0 -2.36833e-017
RightArm  -54.147 -53.724 62.5967
RightForeArm  59.6079 1.36646 0.216223
RightHand  0.326066 -9.13074 -11.0812
LeftUpLeg  -12.7685 2.56033 -1.67965
LeftLeg  17.5022 13.1897 3.21027
LeftFoot  -1.28498 -0.00442466 -0.183991
LeftToes  -16.7182 1.89912e-006 4.45198e-008
364
root  -33.021 34.1374 3.10966 -173.774 80.8757 178.066
RightUpLeg  -12.4271 -7.11466 -1.97059
RightLeg  18.8702 6.7959 1.83909
RightFoot  -2.99712 -0.0219711 -0.348784
RightToes  -30.685 -0.150917 -0.26541
Spine  -4.02901 -0.0144201 0.170085
Spine1  -6.11433 0.0250049 0.754326
HEad  -61.6812 4.30294 3.80356
LeftShoulder1  -1.94126e-019 -3.10601e-018 -2.51263e-017
LeftArm  -34.5503 57.4415 -79.1874
LeftForeArm  23.6412 -1.4109 -0.249275
LeftHand  -0.179645 3.95701 13.721
RightShoulder  -4.96962e-017 0 -2.36833e-017
RightArm  -54.0689 -53.2708 62.2389
RightForeArm  59.1632 1.65822 0.265299
RightHand  0.225816 -8.20261 -10.5236
LeftUpLeg  -12.7082 2.66797 -1.69887
LeftLeg  17.3501 13.3654 3.21509
LeftFoot  -1.24236 -0.00397092 -0.180861
LeftToes  -16.5997 1.89912e-006 4.45198e-008
365
root  -33.0265 34.1506 3.11089 -173.7 81.209 178.067
RightUpLeg  -12.4417 -6.78584 -1.96526
RightLeg  18.625 6.79106 1.80683
RightFoot  -2.84331 -0.0212038 -0.324484
RightToes  -30.7084 -0.151398 -0.264867
Spine  -3.87014 -0.0172008 0.226652
Spine1  -5.95955 0.00317456 0.868601
HEad  -61.9075 5.14655 3.03267
LeftShoulder1  -1.94126e-019 -3.10601e-018 -2.51263e-017
LeftArm  -35.3171 55.9193 -80.0687
LeftForeArm  24.7542 -2.36334 -0.414217
LeftHand  -0.21638 3.53881 12.979
RightShoulder  -4.96962e-017 0 -2.36833e-017
RightArm  -54.3388 -51.5241 62.6579
RightForeArm  58.9599 2.01952 0.327671
RightHand  0.179981 -7.62616 -10.7421
LeftUpLeg  -12.6568 2.82232 -1.71269
LeftLeg  17.1428 13.5274 3.20217
LeftFoot  -1.15788 -0.00335337 -0.16618
LeftToes  -16.4835 1.89912e-006 4.45198e-008
366
root  -33.0309 34.1665 3.10883 -173.566 81.4189 178.102
RightUpLeg  -12.4375 -6.81512 -1.9621
RightLeg  18.3303 7.05101 1.83717
RightFoot  -2.67482 -0.0189488 -0.310234
RightToes  -30.7252 -0.151818 -0.264294
Spine  -3.6846 -0.0579198 0.278814
Spine1  -5.82718 -0.0893734 0.986448
HEad  -61.903 5.92708 2.4809
LeftShoulder1  -1.94126e-019 -3.10601e-018 -2.51263e-017
LeftArm  -34.3713 53.1812 -80.8196
LeftForeArm  26.3557 -3.27872 -0.572572
LeftHand  -0.255664 3.05002 12.281
RightShoulder  -4.96962e-017 0 -2.36833e-017
RightArm  -54.2788 -48.7866 63.6837
RightForeArm  58.3819 2.52851 0.417479
RightHand  0.157589 -7.31504 -11.0406
LeftUpLeg  -12.627 2.94211 -1.72468
LeftLeg  16.8958 13.6313 3.16501
LeftFoot  -1.02793 -0.00267541 -0.136709
LeftToes  -16.517 1.89912e-006 4.45198e-008
367
root  -33.0526 34.1989 3.11296 -173.429 81.4908 178.187
RightUpLeg  -12.3114 -6.84169 -1.93731
RightLeg  17.8547 7.15101 1.80025
RightFoot  -2.36812 -0.0158295 -0.262879
RightToes  -30.9734 -0.152165 -0.26369
Spine  -3.42167 -0.121375 0.309035
Spine1  -5.61575 -0.222121 1.07705
HEad  -61.4656 6.4695 2.26012
LeftShoulder1  -1.94126e-019 -3.10601e-018 -2.51263e-017
LeftArm  -32.0761 49.3075 -81.2889
LeftForeArm  27.5619 -4.25218 -0.741809
LeftHand  -0.287228 2.53397 11.4048
RightShoulder  -4.96962e-017 0 -2.36833e-017
RightArm  -54.4969 -45.1421 65.2661
RightForeArm  57.9291 3.23083 0.541411
RightHand  0.149515 -7.19195 -11.2316
LeftUpLeg  -12.4631 2.84221 -1.71243
LeftLeg  16.3897 13.805 3.07779
LeftFoot  -0.751899 -0.00151716 -0.0696926
LeftToes  -16.461 1.89912e-006 4.45198e-008
